PathFileType	4	(X/Y/Z)	/Users/itak/Documents/Research/Walk-IL/dataset/trc/00334_00011.trc
DataRate	CameraRate	NumFrames	NumMarkers	Units	OrigDataRate	OrigDataStartFrame	OrigNumFrames
100.000000	100.000000	4	54	mm	100.000000	436	582
Frame#	Time	RPSI			LPSI			L3			STRN			T10			C7			CLAV			RBAK			LBAK			LSHO			LUPA			LAEL			LAOL			LWTS			LWPS			LFRA			LHPS			LHTS			RSHO			RUPA			RAEL			RAOL			RWTS			RWPS			RFRA			RIFD			RHTS			RHPS			RBHD			LFHD			RFHD			LBHD			LHIP			RHIP			RASI			LASI			LKNE			LTHI			LANK			LTIP			LTOE			LMT1			LMT5			LHEE			RKNE			RTHI			RANK			RTIP			RTOE			RMT1			RMT5			RHEE			LIFD			*53			
		X1	Y1	Z1	X2	Y2	Z2	X3	Y3	Z3	X4	Y4	Z4	X5	Y5	Z5	X6	Y6	Z6	X7	Y7	Z7	X8	Y8	Z8	X9	Y9	Z9	X10	Y10	Z10	X11	Y11	Z11	X12	Y12	Z12	X13	Y13	Z13	X14	Y14	Z14	X15	Y15	Z15	X16	Y16	Z16	X17	Y17	Z17	X18	Y18	Z18	X19	Y19	Z19	X20	Y20	Z20	X21	Y21	Z21	X22	Y22	Z22	X23	Y23	Z23	X24	Y24	Z24	X25	Y25	Z25	X26	Y26	Z26	X27	Y27	Z27	X28	Y28	Z28	X29	Y29	Z29	X30	Y30	Z30	X31	Y31	Z31	X32	Y32	Z32	X33	Y33	Z33	X34	Y34	Z34	X35	Y35	Z35	X36	Y36	Z36	X37	Y37	Z37	X38	Y38	Z38	X39	Y39	Z39	X40	Y40	Z40	X41	Y41	Z41	X42	Y42	Z42	X43	Y43	Z43	X44	Y44	Z44	X45	Y45	Z45	X46	Y46	Z46	X47	Y47	Z47	X48	Y48	Z48	X49	Y49	Z49	X50	Y50	Z50	X51	Y51	Z51	X52	Y52	Z52	X53	Y53	Z53	X54	Y54	Z54	

437	4.36	-1043.651123046875	978.4556884765625	194.4715423583984	-1058.112670898438	981.4028930664062	65.52891540527344	-1052.9443359375	1045.962036132812	136.4319305419922	-802.3321533203125	1205.1884765625	99.52332305908203	-1044.571166992188	1165.448364257812	129.7268371582031	-981.3369140625	1407.858520507812	105.0971069335938	-833.92529296875	1333.659057617188	95.79886627197266	-1034.91650390625	1275.999633789062	182.4504241943359	-1006.915649414062	1370.708251953125	6.145587921142578	-926.2719116210938	1376.402587890625	-58.40341567993164	-956.9395751953125	1257.429809570312	-121.310920715332	-941.05419921875	1054.445922851562	-138.9119262695312	-1000.629150390625	1039.777099609375	-80.13722991943359	-835.5980834960938	815.1422729492188	-102.91845703125	-876.15185546875	802.8207397460938	-157.3023529052734	-924.2183227539062	950.0697021484375	-148.9920501708984	-875.8408813476562	732.0247802734375	-151.7478790283203	-820.4364013671875	737.8327026367188	-119.7968368530273	-908.0372314453125	1392.579833984375	260.0850830078125	-914.5262451171875	1329.162353515625	328.2721252441406	-888.1868896484375	1063.650390625	376.1339721679688	-944.6397705078125	1048.45166015625	301.8575134277344	-766.2120971679688	847.3265380859375	308.2889099121094	-783.65185546875	829.8037719726562	380.7940368652344	-855.3031005859375	997.9743041992188	380.9111633300781	-726.16162109375	677.516845703125	317.8721008300781	-721.829345703125	750.8140258789062	317.1688842773438	-758.8362426757812	748.219482421875	375.3157653808594	-918.758056640625	1606.609252929688	170.4205474853516	-754.367919921875	1604.992309570312	40.44075775146484	-758.399658203125	1610.080932617188	141.8089294433594	-940.4990234375	1595.417114257812	27.1007080078125	-982.0353393554688	930.0777587890625	-48.64469909667969	-960.1636352539062	912.4739379882812	293.4348449707031	-855.9677124023438	936.0675048828125	245.5519104003906	-856.4708251953125	946.8001708984375	5.227495193481445	-806.2110595703125	486.2012329101562	-50.75004196166992	-853.0167846679688	620.8787231445312	-59.59959030151367	-813.2020263671875	57.17234802246094	-53.88783645629883	-810.8956909179688	266.9055786132812	-65.76983642578125	-604.9454956054688	84.169677734375	-16.78531646728516	-665.6590576171875	59.554931640625	29.12976264953613	-691.0562744140625	73.92376708984375	-80.46417999267578	-839.1941528320312	46.26830673217773	17.11270713806152	-969.5194702148438	448.0692138671875	245.7852935791016	-906.513671875	701.5357666015625	280.7368469238281	-1098.721313476562	50.01438522338867	197.7662353515625	-982.9740600585938	329.1758422851562	226.2740631103516	-905.9622192382812	51.71336364746094	145.2980346679688	-959.7614135742188	42.69954681396484	103.5233917236328	-995.5507202148438	40.43457412719727	215.6860656738281	-1150.873901367188	52.96765518188477	150.2848205566406	-823.2635498046875	654.43115234375	-100.2801055908203	nan	nan	nan	
438	4.37	-1047.221313476562	979.3988647460938	195.926513671875	-1062.025390625	982.6978759765625	66.88902282714844	-1056.743286132812	1046.907836914062	137.8491363525391	-806.326171875	1206.65673828125	99.90748596191406	-1048.803833007812	1166.445678710938	131.0024566650391	-985.7610473632812	1408.87451171875	105.8318023681641	-838.2197875976562	1335.036865234375	96.24836730957031	-1039.068725585938	1277.075073242188	183.4053192138672	-1011.451782226562	1371.702392578125	6.984427928924561	-930.9734497070312	1377.686645507812	-57.68859100341797	-961.3983154296875	1258.717041015625	-120.6792144775391	-944.5548095703125	1055.8173828125	-137.9092712402344	-1004.434753417969	1040.958984375	-79.43568420410156	-837.7256469726562	817.2200317382812	-100.6138153076172	-877.5997924804688	804.5147705078125	-155.41455078125	-926.9598388671875	951.4817504882812	-147.7367553710938	-876.8618774414062	733.7149047851562	-149.6844177246094	-821.9010009765625	739.8869018554688	-117.1363677978516	-912.1660766601562	1393.9033203125	260.6268310546875	-918.6316528320312	1330.626098632812	328.8739624023438	-893.9091796875	1064.917236328125	376.3197021484375	-949.9505004882812	1050.1474609375	301.6745300292969	-773.2482299804688	847.2008666992188	309.9480895996094	-791.5827026367188	830.15380859375	382.3747863769531	-861.5440063476562	999.05517578125	381.4603881835938	-735.7841186523438	676.7830810546875	320.4771728515625	-730.4112548828125	750.0156860351562	319.5142822265625	-767.859375	748.1758422851562	377.4054870605469	-923.5132446289062	1607.7021484375	171.0522613525391	-759.092529296875	1606.34228515625	41.18008804321289	-763.17041015625	1611.319458007812	142.5583190917969	-945.2186279296875	1596.636840820312	27.75190925598145	-986.1491088867188	931.6089477539062	-47.53786849975586	-963.5264892578125	912.9762573242188	294.2973327636719	-859.53271484375	936.9086303710938	246.2835388183594	-860.6632690429688	948.2314453125	6.23693323135376	-809.5388793945312	487.9269714355469	-49.40691375732422	-856.380126953125	622.4771728515625	-58.55016326904297	-825.4962158203125	58.25693511962891	-52.37123107910156	-818.7750244140625	268.0946960449219	-64.39049530029297	-616.9657592773438	83.04499053955078	-15.79853534698486	-677.8040771484375	58.85065078735352	30.23881340026855	-703.31591796875	73.56189727783203	-79.23710632324219	-851.4899291992188	47.78854751586914	18.69661331176758	-971.81787109375	448.4190368652344	245.9730529785156	-909.5001220703125	702.0518798828125	281.2516174316406	-1098.779296875	50.01296615600586	197.7129058837891	-984.686279296875	329.6417541503906	226.2423706054688	-905.9957885742188	51.73990631103516	145.2043151855469	-959.893798828125	42.72418212890625	103.4233932495117	-995.6361694335938	40.54957962036133	215.5648040771484	-1150.902221679688	52.76993942260742	150.2909698486328	-823.8363647460938	656.6117553710938	-97.24494171142578	nan	nan	nan	
439	4.38	-1050.717407226562	980.1559448242188	197.3252105712891	-1065.780151367188	983.8700561523438	68.16075897216797	-1060.39453125	1047.75634765625	139.1912689208984	-810.2138061523438	1208.022583007812	100.2607192993164	-1052.866943359375	1167.318481445312	132.2759857177734	-990.086181640625	1409.7978515625	106.5229873657227	-842.3925170898438	1336.32861328125	96.64783477783203	-1043.087158203125	1278.033203125	184.3684234619141	-1015.880004882812	1372.569702148438	7.786632537841797	-935.5791015625	1378.843017578125	-57.02642059326172	-965.8115844726562	1259.868774414062	-120.0746078491211	-948.1273803710938	1057.043701171875	-137.0578918457031	-1008.215698242188	1041.9970703125	-78.79779815673828	-839.781005859375	819.2345581054688	-98.63294219970703	-879.1453247070312	806.0955200195312	-153.7254638671875	-929.7861328125	952.7596435546875	-146.6487274169922	-877.9435424804688	735.3014526367188	-147.7766723632812	-823.3666381835938	741.8516235351562	-114.7898559570312	-916.1785888671875	1395.11767578125	261.1493225097656	-922.6192016601562	1331.985107421875	329.4539794921875	-899.5419311523438	1066.071044921875	376.4836120605469	-955.2346801757812	1051.7685546875	301.5204772949219	-780.3137817382812	846.9551391601562	311.5548400878906	-799.5134887695312	830.3997192382812	383.8927917480469	-867.7293701171875	1000.030090332031	381.978515625	-745.5289306640625	675.9456176757812	322.9570007324219	-739.0692138671875	749.0897216796875	321.7646484375	-776.9411010742188	748.0279541015625	379.4010009765625	-928.1981811523438	1608.743041992188	171.6349792480469	-763.7622680664062	1607.647705078125	41.83642578125	-767.8740844726562	1612.518798828125	143.221435546875	-949.8946533203125	1597.779296875	28.34771347045898	-990.0164794921875	933.0362548828125	-46.4893684387207	-966.82958984375	913.200927734375	295.0424499511719	-863.0381469726562	937.5579833984375	247.0436096191406	-864.6826782226562	949.5538330078125	7.307708263397217	-812.785400390625	489.5408325195312	-48.09569549560547	-859.6102905273438	623.9312744140625	-57.51229095458984	-838.2051391601562	59.42032623291016	-50.87470626831055	-826.8234252929688	269.2721862792969	-63.02644348144531	-629.4729614257812	81.89566040039062	-14.63740062713623	-690.4790649414062	58.12884521484375	31.45308494567871	-715.9815063476562	73.18999481201172	-77.91173553466797	-864.28955078125	49.42671966552734	20.22188949584961	-974.0664672851562	448.730224609375	246.0204772949219	-912.427978515625	702.4769287109375	281.7318115234375	-1098.853149414062	49.99825286865234	197.6660003662109	-986.3862915039062	330.0807800292969	226.2241058349609	-906.0478515625	51.76364898681641	145.0997467041016	-960.0291748046875	42.73991775512695	103.3172912597656	-995.7377319335938	40.67978668212891	215.4552307128906	-1150.952270507812	52.56264495849609	150.2995910644531	-824.2263793945312	658.7119140625	-94.4632568359375	nan	nan	nan	
440	4.39	-1054.162231445312	980.7346801757812	198.6190643310547	-1069.387084960938	984.8868408203125	69.31967926025391	-1063.93994140625	1048.505615234375	140.4223022460938	-813.9984741210938	1209.263305664062	100.6052703857422	-1056.750122070312	1168.062622070312	133.5128326416016	-994.3058471679688	1410.625122070312	107.1728668212891	-846.4451293945312	1337.512084960938	97.01651000976562	-1046.97265625	1278.85693359375	185.3316345214844	-1020.188232421875	1373.302490234375	8.546072959899902	-940.0689697265625	1379.84619140625	-56.41645050048828	-970.157470703125	1260.853515625	-119.487907409668	-951.7534790039062	1058.087158203125	-136.3580932617188	-1011.970886230469	1042.859252929688	-78.23753356933594	-841.7682495117188	821.1568603515625	-96.97161102294922	-880.798828125	807.52490234375	-152.2260131835938	-932.691162109375	953.8648681640625	-145.7226715087891	-879.0859985351562	736.7503662109375	-146.0235137939453	-824.8431396484375	743.703857421875	-112.7558822631836	-920.0833129882812	1396.198364257812	261.6680908203125	-926.503173828125	1333.209838867188	330.0223999023438	-905.0756225585938	1067.088745117188	376.6506958007812	-960.4754028320312	1053.278442382812	301.4000854492188	-787.4081420898438	846.5808715820312	313.099853515625	-807.4240112304688	830.5235595703125	385.3436279296875	-873.8494873046875	1000.87255859375	382.47265625	-755.3253784179688	675.01708984375	325.2980041503906	-747.7595825195312	748.052978515625	323.9111938476562	-786.0283203125	747.7786865234375	381.2946166992188	-932.806396484375	1609.716674804688	172.1691436767578	-768.375732421875	1608.901489257812	42.4149169921875	-772.5072631835938	1613.676391601562	143.801513671875	-954.5211791992188	1598.829223632812	28.89438629150391	-993.6617431640625	934.320068359375	-45.52103042602539	-970.099365234375	913.2144165039062	295.68408203125	-866.4927368164062	938.0574340820312	247.8330078125	-868.52392578125	950.7549438476562	8.40916633605957	-815.9727783203125	490.9892272949219	-46.81721496582031	-862.6737670898438	625.19677734375	-56.46966171264648	-851.28125	60.68454360961914	-49.41852951049805	-835.0465087890625	270.4370422363281	-61.68658828735352	-642.4030151367188	80.6888427734375	-13.32073974609375	-703.6273803710938	57.39022064208984	32.75575637817383	-728.9981079101562	72.80907440185547	-76.51140594482422	-877.5436401367188	51.20310974121094	21.66946220397949	-976.27294921875	449.0364074707031	245.9733276367188	-915.294189453125	702.8492431640625	282.2005004882812	-1098.939331054688	49.96886444091797	197.6372833251953	-988.0758056640625	330.5074462890625	226.2516326904297	-906.1172485351562	51.78631591796875	144.9879913330078	-960.1576538085938	42.74879455566406	103.2151336669922	-995.8546752929688	40.81704711914062	215.3664855957031	-1151.022827148438	52.35222625732422	150.3191528320312	-824.538818359375	660.6633911132812	-92.00173187255859	nan	nan	nan	
